<?xml version="1.0" encoding="utf-8"?>
<!-- Generator: Adobe Illustrator 16.0.0, SVG Export Plug-In . SVG Version: 6.00 Build 0)  -->
<!DOCTYPE svg PUBLIC "-//W3C//DTD SVG 1.1//EN" "http://www.w3.org/Graphics/SVG/1.1/DTD/svg11.dtd">
<svg version="1.1" id="Calque_1" xmlns="http://www.w3.org/2000/svg" xmlns:xlink="http://www.w3.org/1999/xlink" x="0px" y="0px"
	 width="280px" height="70px" viewBox="0 0 280 70" enable-background="new 0 0 280 70" xml:space="preserve">
<path fill="#4999CB" d="M53.465,47.868c-1.686,0-2.914-0.441-3.685-1.324s-1.156-2.055-1.156-3.517
	c0-1.461,0.722-5.401,2.167-11.824c-2.73,0.065-4.913,0.321-6.551,0.771c-0.932,4.527-2.36,8.445-4.286,11.752
	c-0.996,1.67-2.2,2.995-3.612,3.975c-1.414,0.979-2.955,1.469-4.624,1.469c-1.67,0-3.035-0.554-4.094-1.662
	c-1.06-1.107-1.589-2.561-1.589-4.358c0-2.568,1.06-4.985,3.179-7.249c2.12-2.264,4.8-4.085,8.043-5.466
	c0.289-2.954,0.434-5.371,0.434-7.249s-0.185-3.203-0.554-3.974c-0.37-0.771-0.956-1.156-1.758-1.156
	c-0.803,0-1.863,0.297-3.179,0.892c-1.317,0.594-2.553,1.389-3.708,2.384l-1.204-1.733c1.156-1.413,2.857-2.753,5.105-4.022
	c2.248-1.268,4.415-1.902,6.502-1.902c4.206,0,6.309,3.195,6.309,9.585c0,1.51-0.128,3.323-0.385,5.442
	c2.087-0.417,4.318-0.689,6.695-0.819c1.091-5.072,1.638-9.086,1.638-12.04c0-0.546-0.033-0.964-0.096-1.252
	c2.568-0.996,5.153-1.493,7.754-1.493c0.096,0.257,0.145,0.706,0.145,1.348c0,1.991-0.787,6.534-2.36,13.631
	c3.853,0.288,6.486,0.674,7.899,1.156c0.032,0.128,0.048,0.369,0.048,0.722c0,0.675-0.306,1.525-0.915,2.553
	c-2.087-0.642-4.656-1.06-7.706-1.252c-1.124,5.395-1.686,8.886-1.686,10.476c0,1.589,0.385,2.384,1.156,2.384
	c0.417,0,0.867-0.08,1.349-0.24l0.722,1.878C57.149,47.162,55.15,47.868,53.465,47.868z M31.237,44.545
	c1.027,0,2.039-0.883,3.034-2.648c0.995-1.766,1.798-4.399,2.408-7.899c-1.798,0.771-3.436,1.975-4.913,3.612
	c-1.477,1.638-2.215,3.211-2.215,4.72c0,0.707,0.168,1.253,0.506,1.638C30.395,44.353,30.788,44.545,31.237,44.545z"/>
<path fill="#333333" d="M77.618,27.351c0.064-0.063,0.241-0.481,0.53-1.252c1.509,0,3.532,0.449,6.068,1.349
	c-0.803,2.665-1.445,5.45-1.926,8.355c-0.482,2.907-0.723,4.979-0.723,6.214c0,1.236,0.128,1.854,0.385,1.854
	c0.193,0,0.899-0.306,2.119-0.916l0.578-0.288l0.867,1.686c-0.289,0.258-0.667,0.577-1.132,0.963
	c-0.466,0.386-1.341,0.907-2.625,1.565c-1.285,0.658-2.44,0.987-3.468,0.987c-1.991,0-3.147-0.898-3.468-2.697
	c-2.055,1.799-3.91,2.697-5.563,2.697c-1.654,0-3.051-0.642-4.19-1.927c-1.14-1.283-1.71-3.307-1.71-6.068
	c0-4.303,0.883-7.698,2.649-10.187c1.766-2.488,3.901-3.732,6.406-3.732C74.214,25.954,75.948,26.42,77.618,27.351z M72.127,43.774
	c0.771,0,1.638-0.305,2.601-0.915c0.224-4.527,0.979-9.007,2.264-13.438c-0.963-0.417-1.782-0.627-2.457-0.627
	c-1.156,0-2.143,1.133-2.962,3.396c-0.819,2.265-1.228,4.762-1.228,7.49C70.346,42.41,70.939,43.774,72.127,43.774z"/>
<path fill="#333333" d="M97.461,28.361c-1.285,0-2.312,1.068-3.083,3.204c-0.771,2.135-1.156,4.423-1.156,6.862
	c0,3.854,1.187,5.779,3.564,5.779c0.771,0,1.589-0.184,2.456-0.553c0.867-0.369,1.557-0.73,2.071-1.084l0.722-0.578l1.108,1.493
	c-0.257,0.354-0.771,0.819-1.541,1.396c-0.771,0.578-1.493,1.06-2.167,1.445s-1.541,0.739-2.601,1.06
	c-1.06,0.32-2.104,0.481-3.131,0.481c-2.504,0-4.383-0.819-5.635-2.456c-1.252-1.638-1.878-3.837-1.878-6.599
	c0-3.82,1.051-6.919,3.155-9.296c2.103-2.375,4.808-3.563,8.116-3.563c2.151,0,3.86,0.489,5.129,1.469
	c1.268,0.979,1.902,2.184,1.902,3.612s-0.45,2.657-1.349,3.685c-0.803,0-1.734-0.176-2.793-0.53c-1.06-0.353-1.862-0.786-2.408-1.3
	l0.723-4.239C98.376,28.459,97.975,28.361,97.461,28.361z"/>
<path fill="#4999CB" d="M110.946,15.503c0-1.061-0.096-1.814-0.289-2.265c2.505-0.866,4.865-1.3,7.08-1.3
	c0.289,0.289,0.434,1.028,0.434,2.215c0,2.666-0.883,7.771-2.649,15.316c2.857-2.343,5.683-3.516,8.477-3.516
	c1.252,0,2.312,0.385,3.179,1.155c0.867,0.771,1.3,1.896,1.3,3.372c0,2.762-2.264,4.768-6.791,6.02
	c1.06,3.341,1.99,5.604,2.793,6.792c0.353,0.514,0.61,0.771,0.771,0.771c0.353,0,1.091-0.272,2.215-0.819l0.53-0.241l0.771,1.638
	c-0.771,0.707-1.839,1.421-3.203,2.144c-1.365,0.723-2.609,1.084-3.733,1.084c-2.504,0-4.255-2.279-5.25-6.839
	c-0.45-1.958-0.723-3.789-0.819-5.491c2.054-0.481,3.588-1.067,4.6-1.758c1.011-0.689,1.517-1.572,1.517-2.648
	s-0.546-1.614-1.637-1.614c-1.092,0-2.922,1.092-5.491,3.275c-1.606,6.775-2.408,11.414-2.408,13.92
	c-1.766,0.514-4.062,0.77-6.888,0.77c-0.032-0.545-0.048-1.026-0.048-1.444c0-1.38,0.922-6.101,2.769-14.16
	C110.023,23.818,110.946,18.36,110.946,15.503z"/>
<path fill="#333333" d="M144.324,27.351c0.063-0.063,0.24-0.481,0.529-1.252c1.509,0,3.531,0.449,6.068,1.349
	c-0.803,2.665-1.445,5.45-1.926,8.355c-0.482,2.907-0.723,4.979-0.723,6.214c0,1.236,0.127,1.854,0.385,1.854
	c0.193,0,0.898-0.306,2.119-0.916l0.578-0.288l0.867,1.686c-0.289,0.258-0.667,0.577-1.133,0.963
	c-0.465,0.386-1.34,0.907-2.625,1.565c-1.283,0.658-2.439,0.987-3.467,0.987c-1.992,0-3.147-0.898-3.468-2.697
	c-2.055,1.799-3.91,2.697-5.563,2.697c-1.654,0-3.051-0.642-4.19-1.927c-1.14-1.283-1.709-3.307-1.709-6.068
	c0-4.303,0.883-7.698,2.649-10.187c1.765-2.488,3.901-3.732,6.405-3.732C140.92,25.954,142.653,26.42,144.324,27.351z
	 M138.833,43.774c0.771,0,1.638-0.305,2.601-0.915c0.225-4.527,0.979-9.007,2.264-13.438c-0.963-0.417-1.781-0.627-2.456-0.627
	c-1.156,0-2.144,1.133-2.962,3.396c-0.818,2.265-1.228,4.762-1.228,7.49C137.051,42.41,137.645,43.774,138.833,43.774z"/>
<path fill="#333333" d="M175.918,44.353c-2.729,2.344-5.129,3.516-7.2,3.516s-3.267-1.027-3.588-3.082
	c-0.964,0.963-2.04,1.718-3.228,2.263c-1.188,0.547-2.231,0.819-3.13,0.819c-1.542,0-2.858-0.674-3.949-2.023
	c-1.093-1.348-1.638-3.435-1.638-6.261c0-4.238,0.898-7.569,2.697-9.994c1.798-2.424,3.828-3.636,6.092-3.636
	s4.166,0.514,5.708,1.541c0.995-5.201,1.493-9.296,1.493-12.282l-0.241-2.022c2.408-0.835,4.769-1.252,7.08-1.252
	c0.257,0.547,0.386,1.172,0.386,1.878c0,2.344-0.707,7.104-2.119,14.28c-1.414,7.177-2.119,12.05-2.119,14.618
	c0,0.771,0.176,1.156,0.529,1.156c0.193,0,0.803-0.306,1.83-0.916l0.482-0.288L175.918,44.353z M164.311,28.795
	c-1.124,0-2.095,1.108-2.914,3.324c-0.818,2.215-1.228,4.406-1.228,6.573c0,2.168,0.151,3.558,0.458,4.167
	c0.305,0.61,0.762,0.915,1.372,0.915c1.06,0,2.103-0.434,3.131-1.301c0.097-1.284,0.819-5.554,2.167-12.811
	C166.205,29.084,165.209,28.795,164.311,28.795z"/>
<path fill="#333333" d="M177.074,38.958c0-4.014,1.212-7.185,3.637-9.512c2.424-2.328,5.178-3.492,8.26-3.492
	c1.895,0,3.451,0.466,4.672,1.396c1.221,0.932,1.83,2.176,1.83,3.732c0,1.559-0.394,2.866-1.18,3.926
	c-0.787,1.06-1.742,1.878-2.865,2.456c-2.281,1.125-4.367,1.83-6.262,2.119l-1.156,0.145c0.225,3.019,1.461,4.527,3.709,4.527
	c0.771,0,1.589-0.192,2.456-0.578c0.867-0.385,1.541-0.771,2.022-1.156l0.723-0.577l1.156,1.541
	c-0.258,0.354-0.771,0.819-1.541,1.396c-0.771,0.578-1.493,1.06-2.168,1.445c-1.862,1.027-3.9,1.541-6.117,1.541
	c-2.215,0-3.965-0.786-5.249-2.359S177.074,41.751,177.074,38.958z M187.863,35.297c0.963-1.091,1.444-2.504,1.444-4.237
	c0-1.734-0.514-2.601-1.541-2.601c-1.221,0-2.159,1.035-2.817,3.106c-0.658,2.07-0.987,4.005-0.987,5.804
	C185.6,37.08,186.9,36.39,187.863,35.297z"/>
<path fill="#333333" d="M197.784,47.435h-0.915c0-1.509,0.457-4.398,1.373-8.669c0.914-4.271,1.372-6.694,1.372-7.273
	c0-1.059-0.45-2.183-1.349-3.371l-0.434-0.578l0.049-0.626c1.733-0.481,4.51-0.723,8.332-0.723c0.449,0.61,0.674,1.606,0.674,2.986
	c2.891-2.151,5.186-3.227,6.887-3.227c2.151,0,3.42,1.107,3.806,3.323c0.866-0.706,1.999-1.437,3.396-2.191
	c1.396-0.754,2.648-1.132,3.757-1.132s2.03,0.361,2.77,1.084c0.737,0.722,1.107,1.726,1.107,3.01s-0.354,3.403-1.06,6.357
	c-0.707,2.955-1.06,4.937-1.06,5.948s0.145,1.518,0.434,1.518c0.192,0,0.851-0.306,1.975-0.916l0.53-0.288l0.866,1.686
	c-0.835,0.835-1.968,1.63-3.396,2.384c-1.429,0.754-2.689,1.132-3.781,1.132c-2.408,0-3.611-1.364-3.611-4.094
	c0-0.995,0.345-2.993,1.035-5.996c0.69-3.002,1.035-4.961,1.035-5.876c0-0.916-0.273-1.373-0.818-1.373
	c-0.932,0-1.991,0.354-3.179,1.06c-0.065,0.643-0.506,2.825-1.325,6.55c-0.818,3.726-1.228,6.615-1.228,8.67
	c-0.932,0.418-3.114,0.626-6.55,0.626c-0.065-0.353-0.097-1.204-0.097-2.553s0.377-3.644,1.132-6.888
	c0.754-3.242,1.132-5.298,1.132-6.164c0-0.867-0.306-1.301-0.915-1.301c-0.963,0-2.023,0.386-3.179,1.156
	c-0.065,0.288-0.386,1.702-0.964,4.238c-1.156,5.074-1.733,8.687-1.733,10.837C202.729,47.211,200.705,47.435,197.784,47.435z"/>
<path fill="#333333" d="M236.025,47.482c-2.666,0-3.998-1.476-3.998-4.431c0-0.706,0.32-2.745,0.964-6.116
	c0.642-3.372,0.964-6.182,0.964-8.429c0-0.481-0.065-0.931-0.193-1.35c1.734-0.674,4.109-1.011,7.129-1.011
	c0.159,0.45,0.24,1.221,0.24,2.312c0,1.091-0.354,3.274-1.06,6.55c-0.707,3.275-1.06,5.41-1.06,6.405
	c0,0.996,0.256,1.493,0.771,1.493c1.412,0,2.776-0.497,4.094-1.493c0.097-1.188,0.738-6.021,1.927-14.497
	c1.123-0.449,3.146-0.675,6.068-0.675h0.914c-0.384,1.51-1.019,5.323-1.9,11.439c-0.885,6.117-1.518,9.994-1.904,11.632
	c-0.384,1.637-0.906,3.082-1.564,4.335c-0.658,1.252-1.461,2.191-2.408,2.816c-0.947,0.627-1.902,1.052-2.865,1.277
	c-0.964,0.224-2.209,0.337-3.733,0.337c-1.525,0-2.97-0.49-4.335-1.47s-2.047-1.822-2.047-2.528c0-0.45,0.57-1.14,1.71-2.07
	c1.14-0.933,2.096-1.51,2.866-1.734c1.638,1.638,2.842,3.42,3.611,5.346c0.835,0,1.574-0.995,2.217-2.985
	c0.641-1.991,1.074-4.913,1.3-8.766c-0.771,0.77-1.942,1.564-3.517,2.384C238.642,47.073,237.245,47.482,236.025,47.482z"/>
<path fill="#4999CB" d="M3.541,32.339c5.548,0,6.329-3.048,6.329-5.782c0-2.188-0.312-4.376-0.625-6.564
	c-0.313-2.188-0.625-4.297-0.625-6.485c0-7.188,4.688-10.235,11.33-10.235h1.641v4.298h-1.406c-4.61,0-6.173,2.499-6.173,6.72
	c0,1.797,0.234,3.672,0.547,5.548c0.312,1.953,0.546,3.829,0.546,5.938c0.079,5.002-2.109,7.502-5.625,8.439v0.156
	c3.516,0.859,5.704,3.517,5.625,8.518c0,2.11-0.234,4.062-0.546,5.938c-0.312,1.954-0.547,3.751-0.547,5.626
	c0,4.376,1.797,6.799,6.173,6.799h1.406v4.298H19.95c-6.486,0-11.33-2.813-11.33-10.705c0-2.11,0.312-4.298,0.625-6.407
	c0.312-2.109,0.625-4.22,0.625-6.329c0-2.423-0.781-5.782-6.329-5.782V32.339z"/>
<path fill="#4999CB" d="M275.468,36.324c-5.548,0-6.329,3.359-6.329,5.782c0,2.109,0.312,4.22,0.625,6.329s0.626,4.297,0.626,6.407
	c0,7.892-4.924,10.705-11.33,10.705h-1.642V61.25h1.328c4.377-0.078,6.252-2.423,6.252-6.799c0-1.875-0.313-3.672-0.547-5.626
	c-0.313-1.875-0.626-3.827-0.626-5.938c0-5.001,2.188-7.658,5.626-8.518v-0.156c-3.438-0.938-5.626-3.438-5.626-8.439
	c0-2.108,0.312-3.984,0.626-5.938c0.233-1.876,0.547-3.751,0.547-5.548c0-4.221-1.642-6.642-6.174-6.72h-1.406V3.271h1.562
	c6.643,0,11.409,3.048,11.409,10.235c0,2.188-0.313,4.298-0.626,6.485c-0.312,2.188-0.625,4.376-0.625,6.564
	c0,2.734,0.781,5.782,6.329,5.782V36.324z"/>
</svg>
